<?xml version='1.0' encoding='iso-8859-1'?>
<!DOCTYPE svg PUBLIC '-//W3C//DTD SVG 1.1//EN' 'http://www.w3.org/Graphics/SVG/1.1/DTD/svg11.dtd'>
<!-- Uploaded to: SVG Repo, www.svgrepo.com, Generator: SVG Repo Mixer Tools -->
<svg fill="#000000" height="800px" width="800px" version="1.1" xmlns="http://www.w3.org/2000/svg" viewBox="0 0 249.84 249.84" xmlns:xlink="http://www.w3.org/1999/xlink" enable-background="new 0 0 249.84 249.84">
  <path fill="#ffffff" d="m248.714,152.802c-2.258-8.425-7.66-15.466-15.218-19.829-0.972-0.56-1.985-1.077-2.963-1.514-9.563-4.359-24.283-6.479-45.004-6.479-15.936,0-32.185,1.282-44.013,2.496 14.681-20.208 38.876-56.522 41.043-79.073 0.116-1.125 0.176-2.263 0.176-3.384 0-18.004-14.647-32.652-32.652-32.652-10.107,0-19.157,4.617-25.151,11.853-5.994-7.235-15.045-11.853-25.152-11.853-18.004,0-32.651,14.648-32.651,32.652 0,1.127 0.059,2.266 0.169,3.329 2.171,22.591 26.359,58.915 41.036,79.125-11.841-1.218-28.113-2.504-44.064-2.504-20.699,0-35.406,2.118-44.908,6.45-1.021,0.456-2.035,0.974-3.021,1.543-7.553,4.361-12.955,11.402-15.213,19.827-2.257,8.424-1.098,17.223 3.263,24.775 4.89,8.47 13.333,14.242 22.818,15.865-0.352,0.954-0.663,1.929-0.929,2.923-2.258,8.424-1.099,17.224 3.262,24.776 5.815,10.072 16.659,16.329 28.3,16.329 5.703,0 11.342-1.514 16.307-4.381 0.979-0.566 1.936-1.186 2.795-1.809 18.463-13.165 37.81-52.219 47.98-75.042 10.167,22.826 29.502,61.883 47.934,75.026 0.914,0.661 1.872,1.281 2.842,1.84 4.962,2.865 10.599,4.379 16.303,4.379 11.641,0 22.484-6.257 28.3-16.329 5.052-8.75 5.581-18.89 2.315-27.697 9.491-1.618 17.943-7.392 22.837-15.868 4.358-7.55 5.516-16.349 3.259-24.774zm-166.586-107.782c1.42109e-14-9.733 7.918-17.652 17.651-17.652s17.652,7.919 17.652,17.652c0,4.142 3.357,7.5 7.5,7.5 4.143,0 7.5-3.358 7.5-7.5 0-9.733 7.918-17.652 17.651-17.652s17.652,7.919 17.652,17.652c0,0.606-0.032,1.225-0.102,1.894-1.87,19.457-27.639,57.558-42.71,77.771-15.066-20.208-40.825-58.304-42.701-77.827-0.061-0.607-0.093-1.225-0.093-1.838zm-13.941,174.069c-0.49,0.355-1.011,0.693-1.543,1-2.684,1.55-5.729,2.37-8.804,2.37-6.299,0-12.165-3.383-15.31-8.829-2.357-4.083-2.983-8.84-1.764-13.394 1.221-4.554 4.142-8.361 8.225-10.718 2.406-1.389 3.752-3.911 3.751-6.504 0-1.271-0.324-2.561-1.006-3.741-2.07-3.588-6.656-4.816-10.245-2.745-2.684,1.549-5.728,2.369-8.802,2.369-6.3,0-12.166-3.384-15.31-8.831-4.866-8.429-1.969-19.246 6.456-24.11 0.538-0.31 1.091-0.592 1.695-0.863 5.126-2.337 16.007-5.123 38.738-5.123 18.813,0 38.581,1.927 49.955,3.252-9.976,23.161-30.087,64.495-46.036,75.867zm164.275-49.01c-3.145,5.447-9.01,8.83-15.308,8.83 0,0-0.001,0-0.002,0-3.074-0.001-6.118-0.82-8.802-2.37-3.59-2.072-8.175-0.843-10.246,2.744-0.682,1.181-1.006,2.469-1.006,3.741-0.001,2.593 1.344,5.115 3.75,6.504 8.429,4.868 11.327,15.686 6.461,24.115-3.145,5.446-9.011,8.829-15.309,8.829-3.074,0-6.118-0.819-8.807-2.372-0.528-0.305-1.049-0.641-1.587-1.031-15.909-11.344-36.011-52.683-45.983-75.846 11.363-1.322 31.104-3.243 49.906-3.243 22.759,0 33.651,2.788 38.831,5.149 0.561,0.251 1.114,0.533 1.64,0.837 4.084,2.357 7.005,6.163 8.225,10.718 1.22,4.555 0.594,9.312-1.763,13.395z"/>
</svg>
